{
  "accessors": [
    {
      "bufferView": 0,
      "componentType": 5125,
      "count": 3000,
      "type": "SCALAR"
    },
    {
      "bufferView": 1,
      "componentType": 5126,
      "count": 744,
      "max": [
        0.572004675865173,
        -0.856652140617371,
        0.660110294818878
      ],
      "min": [
        -0.572004675865173,
        -0.999999940395355,
        -0.660110294818878
      ],
      "type": "VEC3"
    },
    {
      "bufferView": 2,
      "componentType": 5126,
      "count": 744,
      "type": "VEC3"
    },
    {
      "bufferView": 3,
      "componentType": 5126,
      "count": 744,
      "type": "VEC2"
    },
    {
      "bufferView": 4,
      "componentType": 5125,
      "count": 121110,
      "type": "SCALAR"
    },
    {
      "bufferView": 5,
      "componentType": 5126,
      "count": 21507,
      "max": [
        0.518239796161652,
        0.999999940395355,
        0.471893340349197
      ],
      "min": [
        -0.518240094184875,
        -0.0364799350500107,
        -0.450058430433273
      ],
      "type": "VEC3"
    },
    {
      "bufferView": 6,
      "componentType": 5126,
      "count": 21507,
      "type": "VEC3"
    },
    {
      "bufferView": 7,
      "componentType": 5126,
      "count": 21507,
      "type": "VEC2"
    },
    {
      "bufferView": 8,
      "componentType": 5125,
      "count": 113136,
      "type": "SCALAR"
    },
    {
      "bufferView": 9,
      "componentType": 5126,
      "count": 19679,
      "max": [
        0.567387282848358,
        0.0491641536355019,
        0.224926367402077
      ],
      "min": [
        -0.567387282848358,
        -0.85729968547821,
        -0.225080713629723
      ],
      "type": "VEC3"
    },
    {
      "bufferView": 10,
      "componentType": 5126,
      "count": 19679,
      "type": "VEC3"
    },
    {
      "bufferView": 11,
      "componentType": 5126,
      "count": 19679,
      "type": "VEC2"
    }
  ],
  "asset": {
    "generator": "Substance Painter 2018.1.0",
    "version": "2.0"
  },
  "bufferViews": [
    {
      "buffer": 0,
      "byteLength": 12000,
      "target": 34963
    },
    {
      "buffer": 0,
      "byteLength": 8928,
      "byteOffset": 12000,
      "target": 34962
    },
    {
      "buffer": 0,
      "byteLength": 8928,
      "byteOffset": 20928,
      "target": 34962
    },
    {
      "buffer": 0,
      "byteLength": 5952,
      "byteOffset": 29856,
      "target": 34962
    },
    {
      "buffer": 0,
      "byteLength": 484440,
      "byteOffset": 35808,
      "target": 34963
    },
    {
      "buffer": 0,
      "byteLength": 258084,
      "byteOffset": 520248,
      "target": 34962
    },
    {
      "buffer": 0,
      "byteLength": 258084,
      "byteOffset": 778332,
      "target": 34962
    },
    {
      "buffer": 0,
      "byteLength": 172056,
      "byteOffset": 1036416,
      "target": 34962
    },
    {
      "buffer": 0,
      "byteLength": 452544,
      "byteOffset": 1208472,
      "target": 34963
    },
    {
      "buffer": 0,
      "byteLength": 236148,
      "byteOffset": 1661016,
      "target": 34962
    },
    {
      "buffer": 0,
      "byteLength": 236148,
      "byteOffset": 1897164,
      "target": 34962
    },
    {
      "buffer": 0,
      "byteLength": 157432,
      "byteOffset": 2133312,
      "target": 34962
    }
  ],
  "buffers": [
    {
      "byteLength": 2290744,
      "uri": "myPeople.bin"
    }
  ],
  "images": [
    {
      "uri": "01_Head_baseColor.png"
    },
    {
      "uri": "01_Head_occlusionRoughnessMetallic.png"
    },
    {
      "uri": "01_Head_normal.png"
    },
    {
      "uri": "02_Body_baseColor.png"
    },
    {
      "uri": "02_Body_occlusionRoughnessMetallic.png"
    },
    {
      "uri": "02_Body_normal.png"
    },
    {
      "uri": "03_Base_baseColor.png"
    },
    {
      "uri": "03_Base_occlusionRoughnessMetallic.png"
    },
    {
      "uri": "03_Base_normal.png"
    }
  ],
  "materials": [
    {
      "alphaMode": "OPAQUE",
      "name": "01_Head",
      "normalTexture": {
        "index": 2
      },
      "occlusionTexture": {
        "index": 1
      },
      "pbrMetallicRoughness": {
        "baseColorTexture": {
          "index": 0
        },
        "metallicRoughnessTexture": {
          "index": 1
        }
      }
    },
    {
      "alphaMode": "OPAQUE",
      "name": "02_Body",
      "normalTexture": {
        "index": 5
      },
      "occlusionTexture": {
        "index": 4
      },
      "pbrMetallicRoughness": {
        "baseColorTexture": {
          "index": 3
        },
        "metallicRoughnessTexture": {
          "index": 4
        }
      }
    },
    {
      "alphaMode": "OPAQUE",
      "name": "03_Base",
      "normalTexture": {
        "index": 8
      },
      "occlusionTexture": {
        "index": 7
      },
      "pbrMetallicRoughness": {
        "baseColorTexture": {
          "index": 6
        },
        "metallicRoughnessTexture": {
          "index": 7
        }
      }
    }
  ],
  "meshes": [
    {
      "name": "base",
      "primitives": [
        {
          "attributes": {
            "NORMAL": 2,
            "POSITION": 1,
            "TEXCOORD_0": 3
          },
          "indices": 0,
          "material": 2,
          "mode": 4
        }
      ]
    },
    {
      "name": "head",
      "primitives": [
        {
          "attributes": {
            "NORMAL": 6,
            "POSITION": 5,
            "TEXCOORD_0": 7
          },
          "indices": 4,
          "material": 0,
          "mode": 4
        }
      ]
    },
    {
      "name": "body",
      "primitives": [
        {
          "attributes": {
            "NORMAL": 10,
            "POSITION": 9,
            "TEXCOORD_0": 11
          },
          "indices": 8,
          "material": 1,
          "mode": 4
        }
      ]
    }
  ],
  "nodes": [
    {
      "children": [
        1,
        3,
        5
      ],
      "name": "root",
      "scale": [
        7.21322059631348,
        7.21322059631348,
        7.21322059631348
      ],
      "translation": [
        0.0,
        7.21322059631348,
        -1.47819519042969e-05
      ]
    },
    {
      "children": [
        2
      ],
      "name": "base"
    },
    {
      "mesh": 0,
      "name": "base"
    },
    {
      "children": [
        4
      ],
      "name": "head"
    },
    {
      "mesh": 1,
      "name": "head"
    },
    {
      "children": [
        6
      ],
      "name": "body"
    },
    {
      "mesh": 2,
      "name": "body"
    }
  ],
  "samplers": [
    {
      "magFilter": 9729,
      "minFilter": 9985,
      "wrapS": 10497,
      "wrapT": 10497
    }
  ],
  "scene": 0,
  "scenes": [
    {
      "name": "Scene",
      "nodes": [
        0
      ]
    }
  ],
  "textures": [
    {
      "sampler": 0,
      "source": 0
    },
    {
      "sampler": 0,
      "source": 1
    },
    {
      "sampler": 0,
      "source": 2
    },
    {
      "sampler": 0,
      "source": 3
    },
    {
      "sampler": 0,
      "source": 4
    },
    {
      "sampler": 0,
      "source": 5
    },
    {
      "sampler": 0,
      "source": 6
    },
    {
      "sampler": 0,
      "source": 7
    },
    {
      "sampler": 0,
      "source": 8
    }
  ]
}